<svg xmlns="http://www.w3.org/2000/svg" width="256" height="256" viewBox="0 0 100 100"><rect width="100" height="100" rx="20" fill="#0084ff"></rect><path fill="#ffffff" d="M76.10 50L76.10 50Q76.10 57.02 74.12 62.38Q72.14 67.73 68.63 71.28Q65.12 74.84 60.35 76.69Q55.58 78.53 50 78.53L50 78.53Q44.42 78.53 39.65 76.69Q34.88 74.84 31.37 71.28Q27.86 67.73 25.88 62.38Q23.90 57.02 23.90 50L23.90 50Q23.90 42.98 25.93 37.67Q27.95 32.36 31.46 28.76Q34.97 25.16 39.74 23.32Q44.51 21.47 50 21.47L50 21.47Q55.49 21.47 60.26 23.32Q65.03 25.16 68.54 28.76Q72.05 32.36 74.08 37.67Q76.10 42.98 76.10 50ZM68.63 50L68.63 50Q68.63 39.20 63.55 33.44Q58.46 27.68 50 27.68L50 27.68Q45.77 27.68 42.35 29.16Q38.93 30.65 36.50 33.48Q34.07 36.32 32.77 40.46Q31.46 44.60 31.46 50L31.46 50Q31.46 60.80 36.50 66.56Q41.54 72.32 50 72.32L50 72.32Q58.55 72.32 63.59 66.56Q68.63 60.80 68.63 50Z"></path></svg>